<svg width="193" height="59" viewBox="0 0 193 59" fill="none" xmlns="http://www.w3.org/2000/svg">
<path d="M0.382786 55L2.54279 43.864H14.5428L12.3828 55H0.382786Z" fill="white"/>
<path d="M20.4218 55L22.1658 45.992H21.0138L19.2698 55H17.0938L19.2538 43.864H24.7418L22.5818 55H20.4218ZM32.1544 43.864L29.9944 55H27.8824L29.6424 45.944H28.5224L27.6904 50.152C27.5411 50.92 27.3704 51.5973 27.1784 52.184C26.9864 52.76 26.7517 53.256 26.4744 53.672C26.2077 54.088 25.8877 54.4347 25.5144 54.712C25.1411 54.9893 24.6984 55.208 24.1864 55.368L23.5144 53.752C23.8984 53.56 24.2131 53.3467 24.4584 53.112C24.7144 52.8773 24.9277 52.616 25.0984 52.328C25.2691 52.04 25.4077 51.7147 25.5144 51.352C25.6317 50.9893 25.7331 50.584 25.8184 50.136L27.0344 43.864H32.1544ZM35.6414 52.824H34.0094L33.2574 55H30.9374L35.2094 43.864H37.8654L37.8334 55H35.5614L35.6414 52.824ZM35.2734 49L34.7134 50.776H35.7214L35.8494 49L36.0574 46.744H35.9614L35.2734 49ZM42.896 45.944L41.136 55H38.96L40.72 45.944H39.008L39.408 43.864H45.008L44.608 45.944H42.896ZM48.6777 49.112L45.7977 55H43.6857L45.8297 43.864H47.9737L46.8217 49.8H46.8537L49.7177 43.864H51.8777L49.7177 55H47.5577L48.7097 49.112H48.6777ZM55.0048 52.824L54.8128 51.4L54.6208 49.752H54.5408L53.5328 55H51.3728L53.5328 43.864H55.5328L56.0128 47.016L56.3968 49.16H56.4928L57.6288 46.968L59.3408 43.864H61.4048L59.2448 55H57.0688L58.0768 49.8H58.0128L57.1488 51.528L56.4608 52.824H55.0048ZM67.7548 52.824L67.5628 51.4L67.3708 49.752H67.2908L66.2828 55H64.1228L66.2828 43.864H68.2828L68.7628 47.016L69.1468 49.16H69.2428L70.3788 46.968L72.0908 43.864H74.1548L71.9948 55H69.8188L70.8268 49.8H70.7628L69.8988 51.528L69.2108 52.824H67.7548ZM80.0273 55L82.1873 43.864H84.3633L82.2033 55H80.0273ZM73.5313 55L75.6913 43.864H77.8673L77.0673 47.944H77.3233C77.782 47.944 78.182 48.008 78.5233 48.136C78.8753 48.2533 79.1686 48.424 79.4033 48.648C79.638 48.8613 79.814 49.1173 79.9313 49.416C80.0593 49.704 80.1233 50.0187 80.1233 50.36C80.1233 51.064 80.0326 51.704 79.8513 52.28C79.67 52.856 79.414 53.3467 79.0833 53.752C78.7526 54.1467 78.358 54.456 77.8993 54.68C77.4406 54.8933 76.934 55 76.3793 55H73.5313ZM76.5073 52.92C76.678 52.92 76.8486 52.8773 77.0193 52.792C77.2006 52.696 77.3553 52.568 77.4833 52.408C77.622 52.2373 77.734 52.0293 77.8193 51.784C77.9046 51.528 77.9473 51.24 77.9473 50.92C77.9473 50.536 77.8513 50.296 77.6593 50.2C77.478 50.0933 77.27 50.04 77.0353 50.04H76.6673L76.1073 52.92H76.5073ZM87.426 51.464L87.762 49.752H95.122L94.786 51.464H87.426ZM103.6 49.112L100.72 55H98.6075L100.752 43.864H102.896L101.744 49.8H101.776L104.64 43.864H106.8L104.64 55H102.48L103.632 49.112H103.6ZM110.327 45.944L108.567 55H106.391L108.551 43.864H113.655L113.255 45.944H110.327ZM117.328 43.864C117.733 43.864 118.101 43.9067 118.432 43.992C118.762 44.0773 119.045 44.2213 119.28 44.424C119.514 44.616 119.696 44.8827 119.824 45.224C119.952 45.5547 120.016 45.9653 120.016 46.456C120.016 47.9067 119.669 49.016 118.976 49.784C118.282 50.5413 117.344 50.92 116.16 50.92H115.648L114.864 55H112.688L114.848 43.864H117.328ZM116.624 45.944L116.064 48.824H116.432C116.57 48.824 116.725 48.8027 116.896 48.76C117.066 48.7067 117.226 48.616 117.376 48.488C117.525 48.3493 117.648 48.1573 117.744 47.912C117.84 47.6667 117.888 47.3467 117.888 46.952C117.888 46.5787 117.802 46.3173 117.632 46.168C117.472 46.0187 117.248 45.944 116.96 45.944H116.624ZM122.923 52.824H121.291L120.539 55H118.219L122.491 43.864H125.147L125.115 55H122.843L122.923 52.824ZM122.555 49L121.995 50.776H123.003L123.131 49L123.339 46.744H123.243L122.555 49ZM126.078 55L128.238 43.864H133.342L132.942 45.944H130.014L129.55 48.28H132.11L131.694 50.408H129.134L128.67 52.92H131.598L131.182 55H126.078ZM143.159 43.864L140.999 55H132.375L134.535 43.864H136.663L134.903 52.936H136.023L137.783 43.864H139.911L138.151 52.936H139.287L141.047 43.864H143.159ZM142.609 55L144.769 43.864H146.945L146.145 47.944H146.401C146.86 47.944 147.26 48.008 147.601 48.136C147.953 48.2533 148.247 48.424 148.481 48.648C148.716 48.8613 148.892 49.1173 149.009 49.416C149.137 49.704 149.201 50.0187 149.201 50.36C149.201 51.064 149.111 51.704 148.929 52.28C148.748 52.856 148.492 53.3467 148.161 53.752C147.831 54.1467 147.436 54.456 146.977 54.68C146.519 54.8933 146.012 55 145.457 55H142.609ZM145.585 52.92C145.756 52.92 145.927 52.8773 146.097 52.792C146.279 52.696 146.433 52.568 146.561 52.408C146.7 52.2373 146.812 52.0293 146.897 51.784C146.983 51.528 147.025 51.24 147.025 50.92C147.025 50.536 146.929 50.296 146.737 50.2C146.556 50.0933 146.348 50.04 146.113 50.04H145.745L145.185 52.92H145.585ZM157.787 45.944L156.027 55H153.851L155.611 45.944H153.899L154.299 43.864H159.899L159.499 45.944H157.787ZM165.152 55L167.312 43.864H169.488L167.328 55H165.152ZM158.656 55L160.816 43.864H162.992L162.192 47.944H162.448C162.907 47.944 163.307 48.008 163.648 48.136C164 48.2533 164.294 48.424 164.528 48.648C164.763 48.8613 164.939 49.1173 165.056 49.416C165.184 49.704 165.248 50.0187 165.248 50.36C165.248 51.064 165.158 51.704 164.976 52.28C164.795 52.856 164.539 53.3467 164.208 53.752C163.878 54.1467 163.483 54.456 163.024 54.68C162.566 54.8933 162.059 55 161.504 55H158.656ZM161.632 52.92C161.803 52.92 161.974 52.8773 162.144 52.792C162.326 52.696 162.48 52.568 162.608 52.408C162.747 52.2373 162.859 52.0293 162.944 51.784C163.03 51.528 163.072 51.24 163.072 50.92C163.072 50.536 162.976 50.296 162.784 50.2C162.603 50.0933 162.395 50.04 162.16 50.04H161.792L161.232 52.92H161.632ZM171.85 51.752H170.042L171.418 43.864H173.546L171.85 51.752ZM169.306 55L169.738 52.776H171.786L171.354 55H169.306Z" fill="white"/>
<path d="M16.3803 18.1923L17.3025 22.386H24.0557L26.3286 18.4826L24.4839 28.741H33.444L38.4511 0.933899H29.0298L22.4415 11.9986L19.8392 0.933899H10.5166L5.50952 28.741H14.4696L16.3803 18.1923Z" fill="white"/>
<path d="M62.3337 28.741H63.5197H66.3856H73.4681L78.574 22.386L82.0328 28.741H91.6189L84.207 15.2568L95.8354 0.933899H84.7011L79.7928 7.03079L76.4986 0.933899H66.9126L74.094 14.1278L65.7268 24.515L62.3337 28.741Z" fill="white"/>
<path d="M45.0065 28.741L47.8065 22.386H52.2866L52.8466 28.741H59.0726H61.9386L61.3126 24.515L57.7219 0.933899H49.8818L35.6841 28.741H45.0065ZM49.816 17.3536L51.6607 13.1923L51.9572 17.3536H49.816Z" fill="white"/>
<path d="M103.148 31.7733L106.772 11.8374H97.8118L92.8047 39.5799H113.031L114.447 31.7733H103.148Z" fill="#0A9F30"/>
<path d="M121.102 11.8374L116.094 39.5799H125.055L130.062 11.8374H121.102Z" fill="#0A9F30"/>
<path d="M148.509 11.8374L146.4 23.6118L139.978 11.8374H133.125L128.118 39.5799H137.078L139.187 27.9345L145.544 39.5799H152.462L157.469 11.8374H148.509Z" fill="#0A9F30"/>
<path d="M178.618 19.6441L180.001 11.8374H160.533L155.526 39.5799H175.06L176.443 31.7733H165.902L166.363 29.1603H173.874L175.225 21.8053H167.714L168.076 19.6441H178.618Z" fill="#0A9F30"/>
<path d="M4.95209 31.7731L3.54578 39.5797H89.6753L91.0918 31.7731H4.95209Z" fill="#0A9F30"/>
<path d="M98.3389 8.80489L99.7554 0.998291L181.95 0.998291L180.561 8.80489H98.3389Z" fill="white"/>
<path d="M188.807 5.36571H188.167V6.72449H187.364V3.0127H188.813C189.273 3.0127 189.629 3.11042 189.879 3.30587C190.128 3.50131 190.253 3.77749 190.253 4.13439C190.253 4.38762 190.195 4.59922 190.079 4.76917C189.965 4.93743 189.791 5.07169 189.557 5.17196L190.401 6.6888V6.72449H189.538L188.807 5.36571ZM188.167 4.74623H188.815C189.017 4.74623 189.173 4.69779 189.284 4.60092C189.395 4.50234 189.45 4.36723 189.45 4.19558C189.45 4.02052 189.397 3.88286 189.292 3.78259C189.188 3.68231 189.029 3.63218 188.813 3.63218H188.167V4.74623Z" fill="white"/>
<circle cx="188.714" cy="4.86858" r="3.37436" stroke="white" stroke-width="1.01231"/>
</svg>
